<svg width="66" height="21" viewBox="0 0 66 21" fill="none" xmlns="http://www.w3.org/2000/svg">
<rect y="8" width="2" height="5" rx="1" fill="white"/>
<rect x="4" y="3" width="2" height="15" rx="1" fill="white"/>
<rect x="8" y="1" width="2" height="19" rx="1" fill="white"/>
<rect x="12" y="3" width="2" height="15" rx="1" fill="white"/>
<rect x="16" width="2" height="21" rx="1" fill="white"/>
<rect x="20" y="4" width="2" height="13" rx="1" fill="white"/>
<rect x="24" y="2" width="2" height="17" rx="1" fill="white"/>
<rect x="28" y="6" width="2" height="9" rx="1" fill="white"/>
<rect x="32" width="2" height="21" rx="1" fill="white"/>
<rect x="36" y="8" width="2" height="5" rx="1" fill="white"/>
<rect x="40" y="3" width="2" height="15" rx="1" fill="white"/>
<rect x="44" y="1" width="2" height="19" rx="1" fill="white"/>
<rect x="48" y="3" width="2" height="15" rx="1" fill="white"/>
<rect x="52" width="2" height="21" rx="1" fill="white"/>
<rect x="56" y="4" width="2" height="13" rx="1" fill="white"/>
<rect x="60" width="2" height="21" rx="1" fill="white"/>
<rect x="64" y="4" width="2" height="13" rx="1" fill="white"/>
</svg>
